<svg id="Layer_1" height="512" viewBox="0 0 512 512" width="512" xmlns="http://www.w3.org/2000/svg" data-name="Layer 1"><path d="m455.97 132.86h-399.94a41.521 41.521 0 0 0 -41.5 41.54v245.45a31.136 31.136 0 0 0 31.12 31.15h410.32a41.521 41.521 0 0 0 41.5-41.54v-235.06a41.521 41.521 0 0 0 -41.5-41.54z" fill="#6e767f"/><path d="m45 419.85v-245.45a41 41 0 0 1 41.03-41.4h-30a41 41 0 0 0 -41.03 41.4v245.45c0 17.2 13.46 31.15 30.65 31.15h30c-17.19 0-30.65-13.95-30.65-31.15z" fill="#525960"/><path d="m333.21 80.57 20.94 52.29h-196.3l20.94-52.3a31.153 31.153 0 0 1 28.9-19.56h96.62a31.147 31.147 0 0 1 28.9 19.57z" fill="#6d7486"/><path d="m125.27 114.2v18.66h-63.64v-18.66a4.153 4.153 0 0 1 4.15-4.15h55.34a4.153 4.153 0 0 1 4.15 4.15z" fill="#6d7486"/><path d="m431.35 168.2a17.305 17.305 0 1 1 -17.29 17.31 17.3 17.3 0 0 1 17.29-17.31z" fill="#4689d3"/><rect fill="#bbf4fc" height="28.38" rx="14.04" width="89.92" x="211.04" y="86.51"/><path d="m14.53 243.01h482.94v98.22h-482.94z" fill="#825852"/><path d="m371.91 243.01a128.386 128.386 0 1 1 -118.66-79.37 128.17 128.17 0 0 1 118.66 79.37z" fill="#6addc7"/><path d="m253.25 194.13a97.99 97.99 0 1 1 -97.91 97.99 97.952 97.952 0 0 1 97.91-97.99z" fill="#56bfab"/><path d="m253.25 228.54a63.58 63.58 0 1 1 -63.53 63.58 63.547 63.547 0 0 1 63.53-63.58z" fill="#adf0e5"/><path d="m237.69 61h-30a31.217 31.217 0 0 0 -28.9 19.63l-20.94 52.37h30l20.94-52.37a31.217 31.217 0 0 1 28.9-19.63z" fill="#575c66"/><path d="m15 243h30v98h-30z" fill="#604340"/><path d="m219.72 292.12a63.577 63.577 0 0 1 48.528-61.781 63.58 63.58 0 1 0 0 123.562 63.586 63.586 0 0 1 -48.528-61.781z" fill="#91c6bc"/><g fill="#f4f8fc"><path d="m40 175h-2a6 6 0 0 1 0-12h2a6 6 0 0 1 0 12z"/><path d="m158 175h-92a6 6 0 0 1 0-12h92a6 6 0 0 1 0 12z"/></g></svg>